<?xml version="1.0" encoding="utf-8"?>
<!-- Generator: Adobe Illustrator 21.0.0, SVG Export Plug-In . SVG Version: 6.00 Build 0)  -->
<svg version="1.2" baseProfile="tiny" xmlns="http://www.w3.org/2000/svg" xmlns:xlink="http://www.w3.org/1999/xlink" x="0px"
	 y="0px" viewBox="0 0 200 317.29" xml:space="preserve">
<g id="lid">
	<path fill="#363636" d="M192.042,53.29H7.958C3.563,53.29,0,49.727,0,45.333v-8.085c0-4.395,3.563-7.958,7.958-7.958h184.085
		c4.395,0,7.958,3.563,7.958,7.958v8.085C200,49.727,196.437,53.29,192.042,53.29z"/>
	<path fill="#363636" d="M185.217,23.79H13.625c-1.726,0-3.125-1.399-3.125-3.125v0c0-1.625,1.246-2.979,2.865-3.114
		c0,0,28.933-2.224,48.635-4.261c20.908-2.162,59.069-10.672,79.5-12.5c28.875-2.583,42.755,1.995,42.755,1.995
		c3.565,1.009,6.245,2.656,6.245,5.747v9.975C190.5,21.425,188.135,23.79,185.217,23.79z"/>
</g>
<g id="body">
	<path fill="#363636" d="M148.819,317.29H51.181c-6.374,0-11.737-4.775-12.473-11.107L10.405,62.776
		c-0.216-1.856,1.235-3.486,3.104-3.486h172.982c1.869,0,3.32,1.629,3.104,3.486l-28.303,243.408
		C160.555,312.515,155.193,317.29,148.819,317.29z"/>
</g>
</svg>
